<svg width="19" height="20" viewBox="0 0 19 20" fill="none" xmlns="http://www.w3.org/2000/svg">
<path d="M6.80831 11.6783L10.4421 15.312C10.5904 15.4595 10.791 15.5422 11.0002 15.5422C11.2093 15.5422 11.41 15.4595 11.5583 15.312C11.6325 15.2384 11.6914 15.1509 11.7316 15.0544C11.7718 14.9579 11.7925 14.8545 11.7925 14.7499C11.7925 14.6454 11.7718 14.542 11.7316 14.4455C11.6914 14.349 11.6325 14.2615 11.5583 14.1879L7.91664 10.562C7.84244 10.4884 7.78354 10.4009 7.74335 10.3044C7.70316 10.2079 7.68247 10.1045 7.68247 9.99994C7.68247 9.89543 7.70316 9.79196 7.74335 9.69549C7.78354 9.59901 7.84244 9.51145 7.91664 9.43786L11.5583 5.81202C11.7074 5.664 11.7915 5.46282 11.7923 5.25274C11.793 5.04266 11.7103 4.84089 11.5623 4.69182C11.4142 4.54274 11.2131 4.45858 11.003 4.45783C10.7929 4.45709 10.5911 4.53983 10.4421 4.68786L6.80831 8.32161C6.36355 8.76692 6.11373 9.37056 6.11373 9.99994C6.11373 10.6293 6.36355 11.233 6.80831 11.6783Z" fill="#F7F7F7" style="fill:#F7F7F7;fill:color(display-p3 0.9699 0.9699 0.9699);fill-opacity:1;"/>
</svg>
