<svg width="19" height="20" viewBox="0 0 19 20" fill="none" xmlns="http://www.w3.org/2000/svg">
<path d="M12.1917 8.32172L8.55794 4.68797C8.40962 4.54053 8.20897 4.45776 7.99982 4.45776C7.79067 4.45776 7.59002 4.54053 7.44169 4.68797C7.36749 4.76157 7.3086 4.84913 7.2684 4.9456C7.22821 5.04207 7.20752 5.14555 7.20752 5.25006C7.20752 5.35457 7.22821 5.45804 7.2684 5.55451C7.3086 5.65099 7.36749 5.73855 7.44169 5.81214L11.0834 9.43797C11.1576 9.51157 11.2165 9.59913 11.2566 9.6956C11.2968 9.79207 11.3175 9.89555 11.3175 10.0001C11.3175 10.1046 11.2968 10.208 11.2566 10.3045C11.2165 10.401 11.1576 10.4885 11.0834 10.5621L7.44169 14.188C7.29262 14.336 7.20845 14.5372 7.20771 14.7473C7.20697 14.9573 7.28971 15.1591 7.43774 15.3082C7.58576 15.4573 7.78694 15.5414 7.99702 15.5422C8.2071 15.5429 8.40887 15.4602 8.55794 15.3121L12.1917 11.6784C12.6365 11.2331 12.8863 10.6294 12.8863 10.0001C12.8863 9.37068 12.6365 8.76704 12.1917 8.32172Z" fill="#F7F7F7" style="fill:#F7F7F7;fill:color(display-p3 0.9699 0.9699 0.9699);fill-opacity:1;"/>
</svg>
