<svg width="13" height="13" viewBox="0 0 13 13" fill="none" xmlns="http://www.w3.org/2000/svg">
<path d="M4.65832 7.64832L7.14457 10.1346C7.24606 10.2355 7.38334 10.2921 7.52644 10.2921C7.66954 10.2921 7.80683 10.2355 7.90832 10.1346C7.95909 10.0842 7.99938 10.0243 8.02688 9.9583C8.05438 9.89229 8.06854 9.82149 8.06854 9.74999C8.06854 9.67848 8.05438 9.60768 8.02688 9.54168C7.99938 9.47567 7.95909 9.41576 7.90832 9.3654L5.41665 6.88457C5.36588 6.83422 5.32559 6.77431 5.29809 6.7083C5.27059 6.64229 5.25643 6.57149 5.25643 6.49999C5.25643 6.42848 5.27059 6.35768 5.29809 6.29168C5.32559 6.22567 5.36588 6.16576 5.41665 6.1154L7.90832 3.63457C8.01032 3.53329 8.0679 3.39564 8.06841 3.2519C8.06892 3.10816 8.01231 2.97011 7.91103 2.86811C7.80975 2.76611 7.6721 2.70853 7.52836 2.70802C7.38462 2.70751 7.24657 2.76413 7.14457 2.8654L4.65832 5.35165C4.35401 5.65634 4.18308 6.06936 4.18308 6.49999C4.18308 6.93061 4.35401 7.34363 4.65832 7.64832Z" fill="#1F1F1F" style="fill:#1F1F1F;fill:color(display-p3 0.1233 0.1233 0.1233);fill-opacity:1;"/>
</svg>
