<svg width="13" height="13" viewBox="0 0 13 13" fill="none" xmlns="http://www.w3.org/2000/svg">
<path d="M8.34168 5.35168L5.85543 2.86543C5.75394 2.76454 5.61666 2.70792 5.47356 2.70792C5.33046 2.70792 5.19317 2.76454 5.09168 2.86543C5.04091 2.91578 5.00062 2.97569 4.97312 3.0417C4.94562 3.10771 4.93146 3.17851 4.93146 3.25001C4.93146 3.32152 4.94562 3.39232 4.97312 3.45832C5.00062 3.52433 5.04091 3.58424 5.09168 3.6346L7.58335 6.11543C7.63412 6.16578 7.67441 6.22569 7.70191 6.2917C7.72941 6.35771 7.74357 6.42851 7.74357 6.50001C7.74357 6.57152 7.72941 6.64232 7.70191 6.70832C7.67441 6.77433 7.63412 6.83424 7.58335 6.8846L5.09168 9.36543C4.98968 9.46671 4.9321 9.60436 4.93159 9.7481C4.93108 9.89184 4.98769 10.0299 5.08897 10.1319C5.19025 10.2339 5.3279 10.2915 5.47164 10.292C5.61538 10.2925 5.75343 10.2359 5.85543 10.1346L8.34168 7.64835C8.64599 7.34366 8.81692 6.93064 8.81692 6.50001C8.81692 6.06939 8.64599 5.65637 8.34168 5.35168Z" fill="#F7F7F7" style="fill:#F7F7F7;fill:color(display-p3 0.9699 0.9699 0.9699);fill-opacity:1;"/>
</svg>
