<svg width="13" height="14" viewBox="0 0 13 14" fill="none" xmlns="http://www.w3.org/2000/svg">
<g clip-path="url(#clip0_125_1823)">
<path d="M6.50016 3.75C6.07164 3.75 5.65274 3.87707 5.29643 4.11515C4.94012 4.35323 4.66241 4.69161 4.49842 5.08752C4.33443 5.48343 4.29153 5.91907 4.37513 6.33936C4.45873 6.75965 4.66509 7.14572 4.9681 7.44873C5.27111 7.75175 5.65718 7.9581 6.07747 8.0417C6.49776 8.1253 6.93341 8.0824 7.32931 7.91841C7.72522 7.75442 8.06361 7.47671 8.30168 7.1204C8.53976 6.7641 8.66683 6.34519 8.66683 5.91667C8.66683 5.34203 8.43856 4.79093 8.03223 4.3846C7.6259 3.97827 7.0748 3.75 6.50016 3.75ZM6.50016 7C6.2859 7 6.07645 6.93646 5.8983 6.81743C5.72014 6.69839 5.58129 6.52919 5.49929 6.33124C5.4173 6.13329 5.39585 5.91547 5.43765 5.70532C5.47945 5.49517 5.58262 5.30214 5.73413 5.15063C5.88564 4.99913 6.07867 4.89595 6.28882 4.85415C6.49896 4.81235 6.71678 4.8338 6.91474 4.9158C7.11269 4.99779 7.28188 5.13665 7.40092 5.3148C7.51996 5.49295 7.5835 5.7024 7.5835 5.91667C7.5835 6.20398 7.46936 6.47953 7.2662 6.6827C7.06303 6.88586 6.78748 7 6.50016 7Z" fill="#0CAE9F" style="fill:#0CAE9F;fill:color(display-p3 0.0473 0.6833 0.6220);fill-opacity:1;"/>
<path d="M6.50017 13.5C6.04406 13.5023 5.59402 13.3953 5.18775 13.188C4.78147 12.9807 4.43078 12.679 4.16504 12.3083C2.10075 9.46078 1.05371 7.32011 1.05371 5.94536C1.05371 4.50087 1.62753 3.11554 2.64894 2.09413C3.67035 1.07272 5.05568 0.498901 6.50017 0.498901C7.94466 0.498901 9.32999 1.07272 10.3514 2.09413C11.3728 3.11554 11.9466 4.50087 11.9466 5.94536C11.9466 7.32011 10.8996 9.46078 8.8353 12.3083C8.56956 12.679 8.21887 12.9807 7.81259 13.188C7.40632 13.3953 6.95628 13.5023 6.50017 13.5ZM6.50017 1.68136C5.3694 1.68265 4.2853 2.13242 3.48572 2.932C2.68615 3.73158 2.23638 4.81567 2.23509 5.94644C2.23509 7.03519 3.26046 9.04857 5.12163 11.6155C5.27963 11.8332 5.48691 12.0103 5.72651 12.1324C5.96612 12.2546 6.23123 12.3182 6.50017 12.3182C6.76911 12.3182 7.03422 12.2546 7.27382 12.1324C7.51343 12.0103 7.72071 11.8332 7.87871 11.6155C9.73988 9.04857 10.7653 7.03519 10.7653 5.94644C10.764 4.81567 10.3142 3.73158 9.51461 2.932C8.71504 2.13242 7.63094 1.68265 6.50017 1.68136Z" fill="#0CAE9F" style="fill:#0CAE9F;fill:color(display-p3 0.0473 0.6833 0.6220);fill-opacity:1;"/>
</g>
<defs>
<clipPath id="clip0_125_1823">
<rect width="13" height="13" fill="white" style="fill:white;fill-opacity:1;" transform="translate(0 0.5)"/>
</clipPath>
</defs>
</svg>
