<svg width="17" height="18" viewBox="0 0 17 18" fill="none" xmlns="http://www.w3.org/2000/svg">
<g clip-path="url(#clip0_110_42)">
<path d="M13.4583 1.20825H3.54167C2.6027 1.20938 1.70252 1.58288 1.03857 2.24682C0.374625 2.91077 0.00112473 3.81096 0 4.74992L0 13.2499C0.00112473 14.1889 0.374625 15.0891 1.03857 15.753C1.70252 16.417 2.6027 16.7905 3.54167 16.7916H13.4583C14.3973 16.7905 15.2975 16.417 15.9614 15.753C16.6254 15.0891 16.9989 14.1889 17 13.2499V4.74992C16.9989 3.81096 16.6254 2.91077 15.9614 2.24682C15.2975 1.58288 14.3973 1.20938 13.4583 1.20825ZM3.54167 2.62492H13.4583C13.8825 2.62575 14.2967 2.75349 14.6476 2.9917C14.9985 3.2299 15.2701 3.56767 15.4275 3.96154L10.0031 9.38667C9.60389 9.78427 9.06342 10.0075 8.5 10.0075C7.93658 10.0075 7.39611 9.78427 6.99692 9.38667L1.5725 3.96154C1.72986 3.56767 2.00148 3.2299 2.35241 2.9917C2.70334 2.75349 3.11753 2.62575 3.54167 2.62492ZM13.4583 15.3749H3.54167C2.97808 15.3749 2.43758 15.151 2.03906 14.7525C1.64055 14.354 1.41667 13.8135 1.41667 13.2499V5.81242L5.99533 10.3883C6.66019 11.0514 7.56093 11.4239 8.5 11.4239C9.43907 11.4239 10.3398 11.0514 11.0047 10.3883L15.5833 5.81242V13.2499C15.5833 13.8135 15.3595 14.354 14.9609 14.7525C14.5624 15.151 14.0219 15.3749 13.4583 15.3749Z" fill="#0CAE9F" style="fill:#0CAE9F;fill:color(display-p3 0.0473 0.6833 0.6220);fill-opacity:1;"/>
</g>
<defs>
<clipPath id="clip0_110_42">
<rect width="17" height="17" fill="white" style="fill:white;fill-opacity:1;" transform="translate(0 0.5)"/>
</clipPath>
</defs>
</svg>
