<svg width="17" height="18" viewBox="0 0 17 18" fill="none" xmlns="http://www.w3.org/2000/svg">
<g clip-path="url(#clip0_110_45)">
<path d="M9.2083 1.20824C9.2083 1.02038 9.28293 0.840215 9.41577 0.707377C9.54861 0.574538 9.72878 0.49991 9.91664 0.49991C11.7946 0.501973 13.5951 1.24891 14.923 2.57685C16.251 3.90478 16.9979 5.70526 17 7.58324C17 7.77111 16.9253 7.95127 16.7925 8.08411C16.6597 8.21695 16.4795 8.29158 16.2916 8.29158C16.1038 8.29158 15.9236 8.21695 15.7908 8.08411C15.6579 7.95127 15.5833 7.77111 15.5833 7.58324C15.5816 6.08087 14.9841 4.64051 13.9217 3.57817C12.8594 2.51583 11.419 1.91826 9.91664 1.91658C9.72878 1.91658 9.54861 1.84195 9.41577 1.70911C9.28293 1.57627 9.2083 1.39611 9.2083 1.20824ZM9.91664 4.74991C10.6681 4.74991 11.3888 5.04842 11.9201 5.57977C12.4515 6.11113 12.75 6.8318 12.75 7.58324C12.75 7.77111 12.8246 7.95127 12.9574 8.08411C13.0903 8.21695 13.2704 8.29158 13.4583 8.29158C13.6462 8.29158 13.8263 8.21695 13.9592 8.08411C14.092 7.95127 14.1666 7.77111 14.1666 7.58324C14.1655 6.45642 13.7174 5.37607 12.9206 4.57928C12.1238 3.7825 11.0435 3.33437 9.91664 3.33324C9.72878 3.33324 9.54861 3.40787 9.41577 3.54071C9.28293 3.67355 9.2083 3.85372 9.2083 4.04158C9.2083 4.22944 9.28293 4.40961 9.41577 4.54244C9.54861 4.67528 9.72878 4.74991 9.91664 4.74991ZM16.3575 12.3567C16.768 12.7683 16.9985 13.3259 16.9985 13.9072C16.9985 14.4886 16.768 15.0462 16.3575 15.4578L15.7129 16.2008C9.91168 21.7549 -4.20541 7.64133 1.26293 1.82166L2.07751 1.11333C2.4896 0.714307 3.04221 0.49357 3.6158 0.498873C4.18939 0.504175 4.73783 0.73509 5.14247 1.14166C5.16443 1.16362 6.47697 2.86858 6.47697 2.86858C6.86643 3.27773 7.08324 3.82124 7.08231 4.38611C7.08139 4.95099 6.86281 5.49378 6.47201 5.90166L5.65176 6.93299C6.1057 8.03595 6.7731 9.03834 7.61562 9.88256C8.45815 10.7268 9.45918 11.3962 10.5612 11.8524L11.5989 11.0272C12.0069 10.6367 12.5496 10.4183 13.1143 10.4176C13.679 10.4168 14.2223 10.6336 14.6313 11.0229C14.6313 11.0229 16.3356 12.3347 16.3575 12.3567ZM15.3828 13.3866C15.3828 13.3866 13.6878 12.0826 13.6658 12.0606C13.5199 11.9159 13.3227 11.8347 13.1172 11.8347C12.9117 11.8347 12.7146 11.9159 12.5686 12.0606C12.5495 12.0805 11.1208 13.2187 11.1208 13.2187C11.0245 13.2954 10.9099 13.3456 10.7883 13.3645C10.6667 13.3834 10.5423 13.3702 10.4273 13.3264C8.99967 12.7949 7.70291 11.9627 6.62489 10.8863C5.54688 9.80983 4.7128 8.5143 4.17914 7.08741C4.13182 6.97086 4.11639 6.84381 4.13444 6.71932C4.15249 6.59483 4.20337 6.47739 4.28184 6.37908C4.28184 6.37908 5.42014 4.94966 5.43926 4.93124C5.58395 4.78532 5.66513 4.58814 5.66513 4.38264C5.66513 4.17714 5.58395 3.97996 5.43926 3.83404C5.4173 3.81279 4.11326 2.11633 4.11326 2.11633C3.96515 1.98352 3.77185 1.91239 3.57298 1.91753C3.37411 1.92267 3.18474 2.00368 3.04368 2.14395L2.22909 2.85229C-1.76732 7.65762 10.4663 19.2127 14.6773 15.2332L15.3226 14.4895C15.4739 14.3494 15.5647 14.1561 15.5759 13.9502C15.5871 13.7444 15.5179 13.5423 15.3828 13.3866Z" fill="#0CAE9F" style="fill:#0CAE9F;fill:color(display-p3 0.0473 0.6833 0.6220);fill-opacity:1;"/>
</g>
<defs>
<clipPath id="clip0_110_45">
<rect width="17" height="17" fill="white" style="fill:white;fill-opacity:1;" transform="translate(0 0.5)"/>
</clipPath>
</defs>
</svg>
