<svg width="205" height="37" viewBox="0 0 205 37" fill="none" xmlns="http://www.w3.org/2000/svg">
<path d="M18.5 0L22.6535 12.7832H36.0945L25.2205 20.6836L29.374 33.4668L18.5 25.5664L7.62597 33.4668L11.7795 20.6836L0.905455 12.7832H14.3465L18.5 0Z" fill="#FFCC00" style="fill:#FFCC00;fill:color(display-p3 1.0000 0.8000 0.0000);fill-opacity:1;"/>
<path d="M60.5 0L64.6535 12.7832H78.0945L67.2205 20.6836L71.374 33.4668L60.5 25.5664L49.626 33.4668L53.7795 20.6836L42.9055 12.7832H56.3465L60.5 0Z" fill="#FFCC00" style="fill:#FFCC00;fill:color(display-p3 1.0000 0.8000 0.0000);fill-opacity:1;"/>
<path d="M102.5 0L106.654 12.7832H120.095L109.221 20.6836L113.374 33.4668L102.5 25.5664L91.626 33.4668L95.7795 20.6836L84.9055 12.7832H98.3465L102.5 0Z" fill="#FFCC00" style="fill:#FFCC00;fill:color(display-p3 1.0000 0.8000 0.0000);fill-opacity:1;"/>
<path d="M144.5 0L148.654 12.7832H162.095L151.221 20.6836L155.374 33.4668L144.5 25.5664L133.626 33.4668L137.779 20.6836L126.905 12.7832H140.346L144.5 0Z" fill="#FFCC00" style="fill:#FFCC00;fill:color(display-p3 1.0000 0.8000 0.0000);fill-opacity:1;"/>
<path d="M186.5 0L190.654 12.7832H204.095L193.221 20.6836L197.374 33.4668L186.5 25.5664L175.626 33.4668L179.779 20.6836L168.905 12.7832H182.346L186.5 0Z" fill="url(#paint0_linear_472_2)" style=""/>
<defs>
<linearGradient id="paint0_linear_472_2" x1="179.773" y1="20.1818" x2="199.955" y2="20.1818" gradientUnits="userSpaceOnUse">
<stop offset="0.34" stop-color="#DFDFDF" style="stop-color:#DFDFDF;stop-color:color(display-p3 0.8745 0.8745 0.8745);stop-opacity:1;"/>
<stop offset="0.3401" stop-color="#E0E0E0" style="stop-color:#E0E0E0;stop-color:color(display-p3 0.8767 0.8767 0.8767);stop-opacity:1;"/>
</linearGradient>
</defs>
</svg>
