<svg width="8" height="21" viewBox="0 0 8 21" fill="none" xmlns="http://www.w3.org/2000/svg">
<path d="M3.5 20.5C3.5 20.7761 3.72386 21 4 21C4.27614 21 4.5 20.7761 4.5 20.5H3.5ZM4.35355 0.146446C4.15829 -0.0488153 3.84171 -0.0488153 3.64645 0.146446L0.464466 3.32843C0.269203 3.52369 0.269203 3.84027 0.464466 4.03553C0.659728 4.2308 0.97631 4.2308 1.17157 4.03553L4 1.20711L6.82843 4.03553C7.02369 4.2308 7.34027 4.2308 7.53553 4.03553C7.7308 3.84027 7.7308 3.52369 7.53553 3.32843L4.35355 0.146446ZM4.5 20.5L4.5 0.5H3.5L3.5 20.5H4.5Z" fill="#8A8A8A" style="fill:#8A8A8A;fill:color(display-p3 0.5416 0.5416 0.5416);fill-opacity:1;"/>
</svg>
