<svg width="14" height="14" viewBox="0 0 14 14" fill="none" xmlns="http://www.w3.org/2000/svg">
<g clip-path="url(#clip0_100_20)">
<path d="M4.95831 5.54171C4.95831 5.86312 5.03297 6.16762 5.16597 6.43829C4.88014 6.80462 4.70222 7.25904 4.67831 7.75429C4.12939 7.17796 3.79164 6.39862 3.79164 5.54229C3.79164 3.55254 5.61281 1.97987 7.67606 2.40337C8.89056 2.65304 9.87464 3.63129 10.1336 4.84404C10.2118 5.21037 10.2264 5.56912 10.1867 5.91212C10.1529 6.20262 9.89797 6.41729 9.60514 6.41729H9.57889C9.23356 6.41729 8.99089 6.10987 9.02881 5.76687C9.05447 5.53646 9.04106 5.29437 8.98214 5.04762C8.80831 4.31671 8.21214 3.72462 7.48006 3.55604C6.14656 3.24979 4.95772 4.26012 4.95772 5.54229L4.95831 5.54171ZM2.68914 4.78629C2.84897 3.85704 3.30339 3.01004 4.00806 2.34912C4.89997 1.51321 6.06781 1.10021 7.29222 1.17604C9.59814 1.32537 11.4012 3.34546 11.3744 5.76396C11.3633 6.77662 10.5151 7.58279 9.50306 7.58279H8.09956C7.95722 7.09921 7.51506 6.74337 6.98539 6.74337C6.34081 6.74337 5.81872 7.26546 5.81872 7.91004C5.81872 8.55462 6.34081 9.0767 6.98539 9.0767C7.29922 9.0767 7.58331 8.95129 7.79272 8.74945H9.50306C11.1475 8.74945 12.5177 7.43987 12.5411 5.79604C12.5842 2.75046 10.2964 0.201289 7.36747 0.0122889C5.81347 -0.0886278 4.33939 0.439289 3.21064 1.49862C2.33622 2.31821 1.75464 3.40321 1.54522 4.57046C1.48164 4.92512 1.76222 5.25062 2.12214 5.25062C2.39747 5.25062 2.64306 5.05871 2.68914 4.78687V4.78629ZM6.99997 9.91671C4.84456 9.91671 2.97964 11.2537 2.35956 13.2429C2.26331 13.5503 2.43539 13.8775 2.74281 13.9738C3.04964 14.0665 3.37689 13.8974 3.47314 13.5905C3.93339 12.1147 5.38297 11.0834 6.99939 11.0834C8.61581 11.0834 10.066 12.1147 10.5256 13.5905C10.6038 13.8402 10.8336 14 11.0827 14C11.1405 14 11.1982 13.9913 11.2566 13.9738C11.564 13.8775 11.7355 13.5503 11.6398 13.2429C11.0197 11.2537 9.15481 9.91671 6.99939 9.91671H6.99997Z" fill="#1F1F1F" style="fill:#1F1F1F;fill:color(display-p3 0.1233 0.1233 0.1233);fill-opacity:1;"/>
</g>
<defs>
<clipPath id="clip0_100_20">
<rect width="14" height="14" fill="white" style="fill:white;fill-opacity:1;"/>
</clipPath>
</defs>
</svg>
